<?xml version="1.0" encoding="iso-8859-1"?>
<!-- Uploaded to: SVG Repo, www.svgrepo.com, Generator: SVG Repo Mixer Tools -->
<svg fill="#000000" height="800px" width="800px" version="1.1" id="Layer_1" xmlns="http://www.w3.org/2000/svg" xmlns:xlink="http://www.w3.org/1999/xlink" 
	 viewBox="0 0 511.987 511.987" xml:space="preserve">
<g>
	<g>
		<g>
			<path d="M341.333,277.34h21.333v-160c0-2.88-1.173-5.547-3.093-7.573L252.907,3.1c-2.027-1.92-4.693-3.093-7.573-3.093H10.667
				C4.8,0.007,0,4.807,0,10.673v448c0,5.867,4.8,10.667,10.667,10.667h192v-21.333H21.333V21.34h213.333v96
				c0,5.867,4.8,10.667,10.667,10.667h96V277.34z M256,106.673V36.38l70.293,70.293H256z"/>
			<path d="M508.907,312.433L455.573,259.1c-4.267-4.053-10.88-4.053-15.04,0l-160,160c-0.853,0.96-1.6,1.92-2.133,3.093
				c-0.107,0.32-0.213,0.533-0.32,0.853c-0.107,0.32-0.213,0.427-0.32,0.64l-21.333,74.667c-1.6,5.653,1.707,11.52,7.36,13.227
				c1.92,0.533,3.947,0.533,5.867,0l74.667-21.333c0.213-0.107,0.427-0.213,0.64-0.32c0.213-0.107,0.533-0.213,0.853-0.32
				c1.173-0.533,2.24-1.28,3.093-2.133l160-160C512.96,323.313,513.067,316.593,508.907,312.433z M282.24,485.873l11.093-38.827
				l27.733,27.733L282.24,485.873z M341.333,464.967l-38.293-38.293L448,281.713l38.293,38.293L341.333,464.967z"/>
		</g>
	</g>
</g>
</svg>