<!DOCTYPE svg PUBLIC "-//W3C//DTD SVG 1.1//EN" "http://www.w3.org/Graphics/SVG/1.1/DTD/svg11.dtd">
<!-- Uploaded to: SVG Repo, www.svgrepo.com, Transformed by: SVG Repo Mixer Tools -->
<svg height="800px" width="800px" version="1.1" id="_x32_" xmlns="http://www.w3.org/2000/svg" xmlns:xlink="http://www.w3.org/1999/xlink" viewBox="0 0 512 512" xml:space="preserve" fill="#000000">
<g id="SVGRepo_bgCarrier" stroke-width="0"/>
<g id="SVGRepo_tracerCarrier" stroke-linecap="round" stroke-linejoin="round"/>
<g id="SVGRepo_iconCarrier"> <style type="text/css"> .st0{fill:#ffffff;} </style> <g> <path class="st0" d="M511.639,84.147c-0.786-11.147-2.932-21.963-6.87-32.056c-3.923-10.086-9.692-19.464-17.554-27.317 c-6.964-6.98-15.164-12.318-23.967-16.17c-15.455-6.736-32.725-9.071-50.442-8.529c-26.609,0.841-54.491,8.128-79.944,19.023 c-12.726,5.456-24.824,11.846-35.822,18.89c-10.981,7.06-20.87,14.778-29.148,23.048l-40.27,40.262 c-10.918-15.634-24.549-29.242-39.414-39.854c0,0-19.966,54.176-48.477,82.695c-28.519,28.511,2.845-2.854-71.29,71.289 c-78.56,78.561-49.625,176.074-29.714,220.77l-38.722,38.73L37.076,512l38.722-38.73c44.696,19.911,142.216,48.854,220.769-29.706 c74.151-74.143,42.779-42.778,71.29-71.289c28.519-28.519,82.703-48.485,82.703-48.485c-10.337-16.799-23.764-30.217-39.028-40.247 l39.437-39.438c12.592-12.609,23.952-28.943,33.534-47.266c7.177-13.741,13.316-28.59,17.978-43.824 C509.469,130.148,513.211,106.448,511.639,84.147z M452.856,46.046c4.629-1.879,8.718-3.09,11.822-3.671 c0.889,0.762,1.753,1.54,2.578,2.366c0.833,0.833,1.603,1.721,2.358,2.61c-0.228,1.273-0.559,2.696-1.022,4.268 c-2.004,6.988-6.241,16.413-12.011,26.79c-6.878,12.404-15.949,26.286-25.956,40.09l-37.126-37.127 c8.663-6.28,17.357-12.208,25.713-17.427c7.13-4.473,14-8.442,20.367-11.736C444.342,49.748,448.823,47.657,452.856,46.046z M418.363,134.754c-11.893,15.156-24.415,29.501-35.83,40.916l-5.832,5.832l-46.197-46.205l5.832-5.833 c11.406-11.422,25.752-23.928,40.915-35.822L418.363,134.754z M367.252,36.51c20.257-6.226,40.947-9.276,58.602-8.002 c4.441,0.314,8.694,0.911,12.711,1.76c-5.259,2.421-10.762,5.267-16.468,8.474c-13.686,7.726-28.472,17.513-43.023,28.204 l-25.689-25.689C357.969,39.537,362.591,37.933,367.252,36.51z M287.858,80.994c9.905-9.936,24.125-20.006,40.373-28.472 c1.73-0.904,3.475-1.784,5.243-2.649l29.415,29.407c-15.014,11.862-29.164,24.282-40.813,35.932l-5.832,5.832l-34.218-34.226 L287.858,80.994z M267.766,101.079l34.218,34.218l-39.917,39.924l-9.268-9.26c-1.47-13.606-5.211-26.781-10.722-39.193 L267.766,101.079z M125.463,386.526c0,0,2.861-31.364,25.674-54.184l28.518,28.518 C156.835,383.673,125.463,386.526,125.463,386.526z M193.906,346.601l-28.511-28.51c4.033-4.041,10.911-10.911,42.771-42.779 l28.527,28.519C204.825,335.699,197.939,342.576,193.906,346.601z M288.236,269.967c-12.986,4.756-25.367,11.516-36.592,20.305 l-29.73-29.722c11.162-13.387,19.054-27.096,24.164-40.821l15.988-15.989l46.19,46.19L288.236,269.967z M276.319,189.481 l39.925-39.924l46.197,46.197l-39.924,39.925L276.319,189.481z M385.017,270.132c-11.634-4.338-23.834-7.058-36.183-8.144 l-12.058-12.058l39.924-39.917l34.218,34.218L385.017,270.132z M450.254,199.716c-6.131,9.566-12.734,17.923-19.243,24.423 l-5.833,5.833l-34.218-34.218l5.824-5.825c11.642-11.658,24.07-25.815,35.94-40.813l29.384,29.384 C458.437,185.99,454.467,193.144,450.254,199.716z M470.739,158.619l-25.681-25.689c7.232-9.841,14.047-19.793,20.092-29.43 c4.709-7.515,8.937-14.842,12.554-21.806c1.446-2.814,2.783-5.557,4.025-8.238c1.596,7.546,2.264,15.926,1.988,24.871 C483.151,117.311,478.333,138.558,470.739,158.619z"/> </g> </g>
</svg>