<!DOCTYPE svg PUBLIC "-//W3C//DTD SVG 1.1//EN" "http://www.w3.org/Graphics/SVG/1.1/DTD/svg11.dtd">
<!-- Uploaded to: SVG Repo, www.svgrepo.com, Transformed by: SVG Repo Mixer Tools -->
<svg fill="#000000" height="800px" width="800px" version="1.1" id="Layer_1" xmlns="http://www.w3.org/2000/svg" xmlns:xlink="http://www.w3.org/1999/xlink" viewBox="0 0 512.213 512.213" xml:space="preserve">
<g id="SVGRepo_bgCarrier" stroke-width="0"/>
<g id="SVGRepo_tracerCarrier" stroke-linecap="round" stroke-linejoin="round"/>
<g id="SVGRepo_iconCarrier"> <g> <g> <path d="M231.787,315.947H189.12c-5.12,0-8.533,3.413-8.533,8.533s3.413,8.533,8.533,8.533h42.667c5.12,0,8.533-3.413,8.533-8.533 S236.907,315.947,231.787,315.947z"/> </g> </g> <g> <g> <path d="M172.053,375.68h-68.267c-5.12,0-8.533,3.413-8.533,8.533s3.413,8.533,8.533,8.533h68.267c5.12,0,8.533-3.413,8.533-8.533 S177.173,375.68,172.053,375.68z"/> </g> </g> <g> <g> <path d="M351.253,350.08h-93.867c-5.12,0-8.533,3.413-8.533,8.533s3.413,8.533,8.533,8.533h93.867c5.12,0,8.533-3.413,8.533-8.533 S356.373,350.08,351.253,350.08z"/> </g> </g> <g> <g> <path d="M436.587,392.747H342.72c-5.12,0-8.533,3.413-8.533,8.533c0,5.12,3.413,8.533,8.533,8.533h93.867 c5.12,0,8.533-3.413,8.533-8.533C445.12,396.16,441.707,392.747,436.587,392.747z"/> </g> </g> <g> <g> <path d="M265.92,409.813h-59.733c-5.12,0-8.533,3.413-8.533,8.533s3.413,8.533,8.533,8.533h59.733c5.12,0,8.533-3.413,8.533-8.533 S271.04,409.813,265.92,409.813z"/> </g> </g> <g> <g> <path d="M317.12,452.48h-68.267c-5.12,0-8.533,3.413-8.533,8.533c0,5.12,3.413,8.533,8.533,8.533h68.267 c5.12,0,8.533-3.413,8.533-8.533C325.653,455.893,322.24,452.48,317.12,452.48z"/> </g> </g> <g> <g> <path d="M502.293,273.28c-9.387,0-18.773,1.707-28.16,4.267L488.64,170.88c2.56-17.067-2.56-34.987-14.507-47.787l-6.827-6.827 c12.8-19.627,20.48-52.907,20.48-98.987c0-3.413-1.707-5.973-3.413-7.68c-3.413-1.707-6.827-0.853-9.387,0.853L447.68,31.787 c-1.707-5.12-3.413-10.24-5.973-14.507l-5.973-12.8c-2.56-5.973-12.8-5.973-15.36,0l-5.973,12.8 c-2.56,4.267-4.267,9.387-5.973,14.507l-26.453-21.333c-2.56-1.707-5.973-2.56-8.533-0.853c-3.413,1.707-5.12,4.267-5.12,7.68 c0,45.227,6.827,79.36,21.333,99.84c-2.56,2.56-5.12,4.267-7.68,6.827c-11.093,12.8-17.067,30.72-14.507,47.787l4.267,32.427 l0.853,4.267l9.387,70.827c-10.24-4.267-21.333-5.973-32.427-5.973H332.48c-9.387,0-19.627,1.707-29.013,5.12l14.507-107.52 c2.56-17.067-2.56-34.987-14.507-47.787l-6.827-6.827c12.8-19.627,20.48-52.907,20.48-98.987c0-3.413-1.707-5.973-3.413-7.68 c-3.413-1.707-6.827-0.853-9.387,0.853l-27.307,21.333c-1.707-5.12-3.413-10.24-5.973-14.507l-5.973-12.8 c-2.56-5.973-12.8-5.973-15.36,0l-5.973,12.8c-2.56,4.267-4.267,9.387-5.973,14.507l-26.453-21.333 c-2.56-1.707-5.973-2.56-8.533-0.853c-3.413,1.707-5.12,4.267-5.12,7.68c0,45.227,6.827,79.36,21.333,99.84 c-2.56,2.56-5.12,4.267-7.68,6.827c-11.093,12.8-17.067,30.72-14.507,47.787l4.267,32.427l0.853,4.267l9.387,70.827 c-10.24-4.267-20.48-5.973-31.573-5.973h-17.067c-9.387,0-20.48,1.707-29.867,5.12l14.507-107.52 c2.56-17.067-2.56-34.987-14.507-47.787l-6.827-6.827c12.8-19.627,20.48-52.907,20.48-98.987c0-3.413-1.707-5.973-3.413-7.68 c-3.413-1.707-6.827-0.853-9.387,0.853l-27.307,21.333c-1.707-5.12-3.413-10.24-5.973-14.507L94.4,4.48 c-2.56-5.973-12.8-5.973-15.36,0l-5.973,12.8c-2.56,4.267-4.267,9.387-5.973,14.507L40.64,10.453 c-2.56-1.707-5.973-2.56-8.533-0.853c-3.413,1.707-5.12,4.267-5.12,7.68c0,45.227,6.827,79.36,21.333,99.84 c-2.56,2.56-5.12,4.267-7.68,6.827c-11.093,12.8-17.067,30.72-14.507,47.787L30.4,204.16c0,0,0.853,1.707,0.853,4.267L40.64,278.4 c-9.387-3.413-19.627-5.12-30.72-5.12c-5.12,0-8.533,3.413-8.533,8.533V503.68c0,5.12,3.413,8.533,8.533,8.533h494.933 c5.12,0,5.973-2.56,5.973-8.533V281.813C510.827,276.693,507.413,273.28,502.293,273.28z M453.653,49.707L470.72,35.2 c-1.707,40.107-10.24,61.44-17.92,72.533c-1.707,0-3.413,0-3.413-0.853c3.413-11.093,5.12-22.187,5.973-34.133v-5.973 C455.36,60.8,454.507,55.68,453.653,49.707z M419.52,66.773c0-5.973,0.853-11.947,2.56-18.773c0-0.853,0-1.707,0-2.56 c1.707-5.973,3.413-11.947,5.973-17.92c3.413,7.68,5.973,16.213,7.68,24.747c0,5.12,0.853,9.387,0.853,14.507v5.12 c0,10.24-1.707,20.48-5.12,30.72c-1.707,0-2.56,0-3.413,0s-2.56,0-3.413,0c-3.413-10.24-5.12-20.48-5.12-30.72V66.773z M385.387,35.2l18.773,14.507c-0.853,5.973-1.707,11.093-1.707,17.067v5.12c0,11.947,1.707,23.04,5.12,34.133 c-1.707,0.853-2.56,0.853-4.267,1.707C395.627,96.64,387.093,75.307,385.387,35.2z M394.773,134.187 c8.533-10.24,20.48-15.36,33.28-15.36s24.747,5.973,33.28,15.36c5.973,8.533,10.24,17.92,10.24,28.16h-34.987 c-5.12,0-8.533,3.413-8.533,8.533s3.413,8.533,8.533,8.533h33.28l-6.827,51.2h-26.453c-5.12,0-8.533,3.413-8.533,8.533 s3.413,8.533,8.533,8.533h24.747l-5.12,38.4h-0.853c-9.387,3.413-18.773,5.973-28.16,5.973s-18.773-1.707-27.307-5.973 l-9.387-72.533h29.013c5.12,0,8.533-3.413,8.533-8.533c0-5.12-3.413-8.533-8.533-8.533h-31.573l-3.413-27.307 C382.827,156.373,386.24,143.573,394.773,134.187z M282.987,49.707L300.053,35.2c-1.707,40.107-10.24,61.44-17.92,72.533 c-1.707,0.853-3.413,0-3.413-0.853c3.413-11.093,5.12-22.187,5.973-34.133v-5.973C284.693,60.8,283.84,55.68,282.987,49.707z M248.853,66.773c0-5.973,0.853-11.947,2.56-18.773c0-0.853,0-1.707,0-2.56c1.707-5.973,3.413-11.947,5.973-17.92 c3.413,7.68,5.973,16.213,7.68,24.747c0,5.12,0.853,9.387,0.853,14.507v5.12c0,10.24-1.707,20.48-5.12,30.72 c-1.707,0-2.56,0-3.413,0s-2.56,0-3.413,0c-3.413-10.24-5.12-20.48-5.12-30.72V66.773z M214.72,35.2l18.773,14.507 c-0.853,5.973-1.707,11.093-1.707,17.067v5.12c0,11.947,1.707,23.04,5.12,34.133c-1.707,0.853-2.56,0.853-4.267,1.707 C224.96,96.64,216.427,75.307,214.72,35.2z M224.107,134.187c8.533-10.24,20.48-15.36,33.28-15.36s24.747,5.973,33.28,15.36 c5.973,8.533,10.24,17.92,10.24,28.16H265.92c-5.12,0-8.533,3.413-8.533,8.533s3.413,8.533,8.533,8.533h33.28l-6.827,51.2H265.92 c-5.12,0-8.533,3.413-8.533,8.533s3.413,8.533,8.533,8.533h24.747l-5.12,38.4c-9.387,3.413-18.773,5.973-29.013,5.973 c-9.387,0-18.773-1.707-27.307-5.973l-9.387-72.533h29.013c5.12,0,8.533-3.413,8.533-8.533c0-5.12-3.413-8.533-8.533-8.533H217.28 l-3.413-27.307C212.16,156.373,215.573,143.573,224.107,134.187z M112.32,49.707L129.387,35.2 c-1.707,40.107-10.24,61.44-17.92,72.533c-1.707,0.853-3.413,0-3.413-0.853c3.413-11.093,5.12-22.187,5.973-34.133v-5.973 C114.027,60.8,113.173,55.68,112.32,49.707z M78.187,66.773c0-5.973,0.853-11.947,2.56-18.773c0-0.853,0-1.707,0-2.56 c0.853-5.973,3.413-11.947,5.973-17.92c3.413,7.68,5.973,16.213,7.68,24.747c0,5.12,0.853,9.387,0.853,14.507v5.12 c0,10.24-1.707,20.48-5.12,30.72c-1.707,0-2.56,0-3.413,0s-2.56,0-3.413,0c-3.413-10.24-5.12-20.48-5.12-30.72V66.773z M44.053,35.2l18.773,14.507C61.973,55.68,61.12,60.8,61.12,66.773v5.12c0,11.947,1.707,23.04,5.12,34.133 c-1.707,0.853-2.56,0.853-4.267,1.707C54.293,96.64,45.76,75.307,44.053,35.2z M53.44,134.187 c8.533-10.24,20.48-15.36,33.28-15.36c12.8,0,24.747,5.973,33.28,15.36c5.973,8.533,10.24,17.92,10.24,28.16H95.253 c-5.12,0-8.533,3.413-8.533,8.533s3.413,8.533,8.533,8.533h33.28l-6.827,51.2H95.253c-5.12,0-8.533,3.413-8.533,8.533 s3.413,8.533,8.533,8.533H120l-5.12,38.4c-5.973,2.56-11.947,4.267-18.773,5.12c-3.413,0-6.827,0.853-9.387,0.853 c-9.387,0-18.773-1.707-28.16-5.973l-9.387-72.533h29.013c5.12,0,8.533-3.413,8.533-8.533c0-5.12-3.413-8.533-8.533-8.533H46.613 L43.2,169.173C41.493,156.373,44.907,143.573,53.44,134.187z M496.32,350.08h-60.587c-5.12,0-7.68,3.413-7.68,8.533 s3.413,8.533,7.68,8.533h60.587v59.733H452.8c-5.12,0-7.68,3.413-7.68,8.533s3.413,8.533,7.68,8.533h43.52v51.2H19.307v-25.6 h101.547c5.12,0,8.533-3.413,8.533-8.533c0-5.12-3.413-8.533-8.533-8.533H19.307v-34.133h33.28c5.12,0,8.533-3.413,8.533-8.533 s-3.413-8.533-8.533-8.533h-33.28v-59.733h75.947c5.12,0,8.533-3.413,8.533-8.533c0-5.12-3.413-8.533-8.533-8.533H19.307v-34.133 c6.827,0.853,13.653,3.413,20.48,5.973l11.093,5.12c23.04,10.24,49.493,10.24,72.533,0l11.093-5.12 c9.387-4.267,18.773-5.973,29.013-5.973h17.067c10.24,0,19.627,1.707,29.867,5.973l11.093,5.12c23.04,10.24,49.493,10.24,72.533,0 l11.093-5.12c9.387-4.267,18.773-5.973,29.013-5.973h17.067c10.24,0,19.627,1.707,29.867,6.827l11.093,5.12 c23.04,10.24,49.493,10.24,72.533,0l11.093-5.12c5.973-3.413,13.653-5.12,20.48-5.973V350.08z"/> </g> </g> <g> <g> <path d="M462.187,461.013h-76.8c-5.12,0-8.533,3.413-8.533,8.533s3.413,8.533,8.533,8.533h76.8c5.12,0,8.533-3.413,8.533-8.533 S467.307,461.013,462.187,461.013z"/> </g> </g> </g>
</svg>