<svg width="68" height="13" viewBox="0 0 68 13" fill="none" xmlns="http://www.w3.org/2000/svg">
<g clip-path="url(#clip0_112_66)">
<path d="M2.70897 12.5823C2.41947 12.7308 2.09097 12.4705 2.14947 12.1383L2.77197 8.59076L0.129717 6.07376C-0.117033 5.83826 0.0112166 5.40776 0.341967 5.36126L4.01547 4.83926L5.65347 1.59401C5.80122 1.30151 6.20097 1.30151 6.34872 1.59401L7.98672 4.83926L11.6602 5.36126C11.991 5.40776 12.1192 5.83826 11.8717 6.07376L9.23022 8.59076L9.85272 12.1383C9.91122 12.4705 9.58272 12.7308 9.29322 12.5823L5.99997 10.8903L2.70822 12.5823H2.70897Z" fill="#F8E732"/>
</g>
<g clip-path="url(#clip1_112_66)">
<path d="M16.709 12.5823C16.4195 12.7308 16.091 12.4705 16.1495 12.1383L16.772 8.59076L14.1297 6.07376C13.883 5.83826 14.0112 5.40776 14.342 5.36126L18.0155 4.83926L19.6535 1.59401C19.8012 1.30151 20.201 1.30151 20.3487 1.59401L21.9867 4.83926L25.6602 5.36126C25.991 5.40776 26.1192 5.83826 25.8717 6.07376L23.2302 8.59076L23.8527 12.1383C23.9112 12.4705 23.5827 12.7308 23.2932 12.5823L20 10.8903L16.7082 12.5823H16.709Z" fill="#F8E732"/>
</g>
<g clip-path="url(#clip2_112_66)">
<path d="M30.709 12.5823C30.4195 12.7308 30.091 12.4705 30.1495 12.1383L30.772 8.59076L28.1297 6.07376C27.883 5.83826 28.0112 5.40776 28.342 5.36126L32.0155 4.83926L33.6535 1.59401C33.8012 1.30151 34.201 1.30151 34.3487 1.59401L35.9867 4.83926L39.6602 5.36126C39.991 5.40776 40.1192 5.83826 39.8717 6.07376L37.2302 8.59076L37.8527 12.1383C37.9112 12.4705 37.5827 12.7308 37.2932 12.5823L34 10.8903L30.7082 12.5823H30.709Z" fill="#F8E732"/>
</g>
<g clip-path="url(#clip3_112_66)">
<path d="M44.709 12.5823C44.4195 12.7308 44.091 12.4705 44.1495 12.1383L44.772 8.59076L42.1297 6.07376C41.883 5.83826 42.0112 5.40776 42.342 5.36126L46.0155 4.83926L47.6535 1.59401C47.8012 1.30151 48.201 1.30151 48.3487 1.59401L49.9867 4.83926L53.6602 5.36126C53.991 5.40776 54.1192 5.83826 53.8717 6.07376L51.2302 8.59076L51.8527 12.1383C51.9112 12.4705 51.5827 12.7308 51.2932 12.5823L48 10.8903L44.7082 12.5823H44.709Z" fill="#F8E732"/>
</g>
<g clip-path="url(#clip4_112_66)">
<path d="M58.709 11.5823C58.4195 11.7308 58.091 11.4705 58.1495 11.1383L58.772 7.59076L56.1297 5.07376C55.883 4.83826 56.0112 4.40776 56.342 4.36126L60.0155 3.83926L61.6535 0.594009C61.8012 0.301509 62.201 0.301509 62.3487 0.594009L63.9867 3.83926L67.6602 4.36126C67.991 4.40776 68.1192 4.83826 67.8717 5.07376L65.2302 7.59076L65.8527 11.1383C65.9112 11.4705 65.5827 11.7308 65.2932 11.5823L62 9.89026L58.7082 11.5823H58.709Z" fill="#F8E732"/>
</g>
<defs>
<clipPath id="clip0_112_66">
<rect width="12" height="12" fill="white" transform="translate(0 1)"/>
</clipPath>
<clipPath id="clip1_112_66">
<rect width="12" height="12" fill="white" transform="translate(14 1)"/>
</clipPath>
<clipPath id="clip2_112_66">
<rect width="12" height="12" fill="white" transform="translate(28 1)"/>
</clipPath>
<clipPath id="clip3_112_66">
<rect width="12" height="12" fill="white" transform="translate(42 1)"/>
</clipPath>
<clipPath id="clip4_112_66">
<rect width="12" height="12" fill="white" transform="translate(56)"/>
</clipPath>
</defs>
</svg>
