<!DOCTYPE svg PUBLIC "-//W3C//DTD SVG 1.1//EN" "http://www.w3.org/Graphics/SVG/1.1/DTD/svg11.dtd">
<!-- Uploaded to: SVG Repo, www.svgrepo.com, Transformed by: SVG Repo Mixer Tools -->
<svg height="800px" width="800px" version="1.1" id="_x32_" xmlns="http://www.w3.org/2000/svg" xmlns:xlink="http://www.w3.org/1999/xlink" viewBox="0 0 512 512" xml:space="preserve" fill="#ffffff" stroke="#ffffff">
<g id="SVGRepo_bgCarrier" stroke-width="0"/>
<g id="SVGRepo_tracerCarrier" stroke-linecap="round" stroke-linejoin="round"/>
<g id="SVGRepo_iconCarrier"> <style type="text/css"> .st0{fill:#ffffff;} </style> <g> <path class="st0" d="M68.383,143.856c3.421,0,6.202-2.782,6.202-6.204V92.228c0-3.414-2.781-6.195-6.202-6.195 c-3.415,0-6.188,2.781-6.188,6.195v45.424C62.195,141.075,64.968,143.856,68.383,143.856z"/> <path class="st0" d="M216.839,251.175c17.335-7.485,29.741-20.749,33.035-30.47l12.742-50.85c1.491-4.4,0.481-8.928-2.605-11.693 c-3.085-2.766-7.709-3.278-11.949-1.355l-44.808,20.469c-7.141,3.261-18.425,11.3-22.552,22.199l-16.766,43.278 c-0.4-0.04-0.785-0.12-1.194-0.12c-0.408,0-0.794,0.072-1.194,0.12l-16.758-43.278c-4.127-10.899-15.411-18.938-22.56-22.199 l-44.808-20.469c-4.24-1.924-8.864-1.411-11.949,1.355c-3.086,2.765-4.088,7.292-2.597,11.693l12.742,50.85 c3.294,9.722,15.692,22.985,33.035,30.47c15.932,6.869,31.352,10.588,42.82,12.607v57.919l-6.684-17.262 c-4.127-10.9-15.411-18.938-22.56-22.2L77.422,261.77c-4.24-1.924-8.864-1.411-11.949,1.354c-3.086,2.765-4.088,7.293-2.597,11.693 l12.742,50.851c3.294,9.722,15.692,22.985,33.035,30.47c15.932,6.868,31.352,10.595,42.82,12.606v57.919l-6.684-17.263 c-4.127-10.899-15.411-18.938-22.56-22.2l-44.808-20.468c-4.24-1.924-8.864-1.411-11.949,1.354 c-3.086,2.765-4.088,7.293-2.597,11.693l12.742,50.85c3.294,9.722,15.692,22.985,33.035,30.47 c15.932,6.868,31.352,10.588,42.82,12.607v27.024c0,6.227,5.04,11.268,11.268,11.268c6.227,0,11.268-5.041,11.268-11.268v-27.024 c11.469-2.02,26.888-5.739,42.829-12.607c17.335-7.485,29.741-20.749,33.035-30.47l12.742-50.85 c1.491-4.4,0.481-8.928-2.605-11.693c-3.085-2.765-7.709-3.278-11.949-1.354l-44.808,20.468c-7.141,3.262-18.425,11.3-22.552,22.2 l-6.692,17.279v-57.936c11.469-2.011,26.888-5.738,42.829-12.606c17.335-7.485,29.741-20.749,33.035-30.47l12.742-50.851 c1.491-4.4,0.481-8.928-2.605-11.693c-3.085-2.765-7.709-3.278-11.949-1.354l-44.808,20.468c-7.141,3.262-18.425,11.3-22.552,22.2 l-6.692,17.286v-57.943C185.479,261.762,200.898,258.044,216.839,251.175z"/> <path class="st0" d="M257.102,86.033c-3.421,0-6.194,2.781-6.194,6.195v45.424c0,3.422,2.773,6.204,6.194,6.204 c3.415,0,6.195-2.782,6.195-6.204V92.228C263.297,88.814,260.517,86.033,257.102,86.033z"/> <path class="st0" d="M162.461,57.815c3.422,0,6.195-2.773,6.195-6.195V6.195c0-3.422-2.773-6.195-6.195-6.195 c-3.414,0-6.195,2.773-6.195,6.195V51.62C156.266,55.042,159.047,57.815,162.461,57.815z"/> <path class="st0" d="M152.299,181.291c2.124,3.647,5.907,5.882,9.962,5.882c4.063-0.008,7.83-2.236,9.962-5.882l25.092-43.036 c4.255-7.302,4.255-16.509,0-23.811l-25.092-43.029c-2.132-3.654-5.899-5.882-9.962-5.89c-4.055,0-7.838,2.236-9.962,5.89 l-25.093,43.021c-4.255,7.31-4.255,16.517,0,23.827L152.299,181.291z"/> <path class="st0" d="M312.697,253.026c2.404,0,4.351-1.948,4.351-4.36v-31.945c0-2.405-1.947-4.368-4.351-4.368 c-2.412,0-4.36,1.963-4.36,4.368v31.945C308.337,251.079,310.285,253.026,312.697,253.026z"/> <path class="st0" d="M417.123,328.521c12.189-5.257,20.925-14.594,23.241-21.43l8.96-35.776c1.05-3.085,0.336-6.275-1.835-8.222 c-2.172-1.939-5.426-2.3-8.399-0.945l-31.528,14.394c-5.017,2.3-12.951,7.95-15.86,15.611l-11.797,30.447 c-0.28-0.032-0.545-0.08-0.834-0.08c-0.296,0-0.56,0.048-0.849,0.08l-11.781-30.447c-2.909-7.662-10.843-13.312-15.876-15.611 l-31.52-14.394c-2.973-1.355-6.236-0.994-8.399,0.945c-2.172,1.948-2.877,5.138-1.828,8.222l8.96,35.776 c2.316,6.836,11.044,16.173,23.234,21.43c11.219,4.841,22.062,7.446,30.133,8.872v40.752l-4.704-12.157 c-2.909-7.662-10.843-13.312-15.876-15.612l-31.52-14.402c-2.973-1.354-6.236-0.986-8.399,0.954 c-2.172,1.947-2.877,5.136-1.828,8.222l8.96,35.776c2.316,6.836,11.044,16.173,23.234,21.438 c11.219,4.825,22.062,7.445,30.133,8.864v40.744l-4.704-12.15c-2.909-7.661-10.843-13.319-15.876-15.612l-31.52-14.402 c-2.973-1.354-6.236-0.986-8.399,0.954c-2.172,1.956-2.877,5.129-1.828,8.231l8.96,35.768c2.316,6.836,11.044,16.173,23.234,21.438 c11.219,4.824,22.062,7.445,30.133,8.863v19.01c0,4.384,3.543,7.927,7.926,7.927c4.376,0,7.919-3.543,7.919-7.927v-19.01 c8.07-1.418,18.914-4.039,30.134-8.863c12.189-5.266,20.925-14.602,23.241-21.438l8.96-35.768c1.05-3.102,0.336-6.276-1.835-8.231 c-2.172-1.939-5.426-2.308-8.399-0.954l-31.528,14.402c-5.017,2.292-12.951,7.951-15.86,15.612l-4.712,12.158v-40.752 c8.07-1.419,18.914-4.039,30.134-8.864c12.189-5.265,20.925-14.602,23.241-21.438l8.96-35.776c1.05-3.086,0.336-6.275-1.835-8.222 c-2.172-1.94-5.426-2.309-8.399-0.954l-31.528,14.402c-5.017,2.3-12.951,7.951-15.86,15.612l-4.712,12.166v-40.761 C395.06,335.966,405.903,333.362,417.123,328.521z"/> <path class="st0" d="M445.438,212.354c-2.404,0-4.352,1.963-4.352,4.368v31.945c0,2.412,1.948,4.36,4.352,4.36 c2.404,0,4.368-1.948,4.368-4.36v-31.945C449.805,214.317,447.842,212.354,445.438,212.354z"/> <path class="st0" d="M378.863,192.502c2.42,0,4.36-1.947,4.36-4.351v-31.954c0-2.404-1.94-4.36-4.36-4.36 c-2.396,0-4.352,1.956-4.352,4.36v31.954C374.511,190.555,376.467,192.502,378.863,192.502z"/> <path class="st0" d="M371.722,279.361c1.5,2.565,4.152,4.144,7.013,4.144c2.845-0.008,5.506-1.579,6.997-4.144l17.663-30.27 c2.99-5.129,2.99-11.612,0-16.75l-17.663-30.27c-1.491-2.565-4.152-4.136-6.997-4.143c-2.861,0-5.513,1.578-7.013,4.143 l-17.646,30.262c-2.998,5.146-2.998,11.629,0,16.766L371.722,279.361z"/> </g> </g>
</svg>